# xmcd
#
# Track frame offsets: 
#        150
#        13091
#        25626
#        37120
#        54056
#        66438
#        82183
#        97723
#        113233
#        121221
#        134272
#        148062
#        162853
#        174929
#        187117
#        203656
#        220205
#        232706
#        245878
#        258373
#        270927
#        289107
#        307095
#        316963
#        331879
#
# Disc length: 4588 seconds
#
# Revision: 0
# Processed by: cddbd v1.5.2PL0 Copyright (c) Steve Scherf et al.
# Submitted via: ExactAudioCopy v1.3
#
DISCID=6011ea19
DTITLE=Various Artist - 101 Hits Soul Classics CD4
DYEAR=2009
DGENRE=Soul
TTITLE0=The Three Degrees - WHEN WILL I SEE YOU AGAIN
TTITLE1=Fontella Bass - RESCUE ME
TTITLE2=Wilson Pickett - IF YOU NEED ME
TTITLE3=Brook Benton - RAINY NIGHT IN GEORGIA
TTITLE4=King Curtis - SOUL TWIST
TTITLE5=Ike and Tina Turner - I CAN'T STOP LOVING YOU
TTITLE6=Al Wilson - SHOW AND TELL
TTITLE7=BARRY WHITE and THE LOVE UNLIMITED ORCHESTRA - YOUR HEART AND SO
TTITLE7=UL
TTITLE8=The Supremes - BABY LOVE
TTITLE9=Percy Sledge - WHEN A MAN LOVES A WOMAN
TTITLE10=Barry White - UNDER THE INFLUENCE OF LOVE
TTITLE11=Rufus Thomas - PUSH AND PULL
TTITLE12=The Whispers - NEEDLE IN A HAYSTACK
TTITLE13=Eddie Floyd - THINGS GET BETTER
TTITLE14=Aaron Neville - CRY ME A RIVER
TTITLE15=Mary Wells - YOU BEAT ME TO THE PUNCH
TTITLE16=Carla Thomas - B A B Y
TTITLE17=Gene Chandler - NOTHING CAN STOP ME
TTITLE18=BETTYE LAVETTE - LET ME DOWN EASY
TTITLE19=Jerry Butler - HE WILL BREAK YOUR HEART
TTITLE20=Mary Wells - WHAT LOVE HAS JOINED TOGETHER
TTITLE21=Odyssey - USE IT UP, WEAR IT OUT
TTITLE22=The Drifters - SAVE THE LAST DANCE FOR ME
TTITLE23=EDDIE HOLMAN - HEY THERE LONELY GIRL
TTITLE24=Lee Dorsey - WORKING IN A COAL MINE
EXTD=
EXTT0=
EXTT1=
EXTT2=
EXTT3=
EXTT4=
EXTT5=
EXTT6=
EXTT7=
EXTT8=
EXTT9=
EXTT10=
EXTT11=
EXTT12=
EXTT13=
EXTT14=
EXTT15=
EXTT16=
EXTT17=
EXTT18=
EXTT19=
EXTT20=
EXTT21=
EXTT22=
EXTT23=
EXTT24=
PLAYORDER=
